<svg width="40" height="40" viewBox="0 0 40 40" fill="none" xmlns="http://www.w3.org/2000/svg">
<path d="M21.4032 19.9942L25.6976 15.7095C26.0892 15.3179 26.0892 14.6829 25.6976 14.2913C25.306 13.8996 24.671 13.8996 24.2794 14.2913L19.995 18.586L15.7106 14.2913C15.319 13.8996 14.6841 13.8996 14.2925 14.2913C13.9009 14.6829 13.9009 15.3179 14.2925 15.7095L18.5869 19.9942L14.2925 24.2789C14.1034 24.4665 13.9971 24.7218 13.9971 24.9881C13.9971 25.2544 14.1034 25.5096 14.2925 25.6972C14.48 25.8863 14.7353 25.9926 15.0016 25.9926C15.2678 25.9926 15.5231 25.8863 15.7106 25.6972L19.995 21.4025L24.2794 25.6972C24.4669 25.8863 24.7222 25.9926 24.9885 25.9926C25.2548 25.9926 25.51 25.8863 25.6976 25.6972C25.8866 25.5096 25.993 25.2544 25.993 24.9881C25.993 24.7218 25.8866 24.4665 25.6976 24.2789L21.4032 19.9942Z" fill="#637381"/>
</svg>
