<svg width="24" height="24" viewBox="0 0 24 24" fill="none" xmlns="http://www.w3.org/2000/svg">
<path fill-rule="evenodd" clip-rule="evenodd" d="M16.9204 4.18394L19.8139 7.07741C20.6228 7.84806 20.6558 9.12783 19.8878 9.9392L10.3837 19.4433C10.0395 19.7846 9.58832 19.9972 9.10594 20.0452L4.70237 20.4465H4.60733C4.32664 20.4481 4.05685 20.3379 3.85756 20.1403C3.63478 19.9183 3.52252 19.6086 3.55132 19.2955L4.0054 14.8919C4.05346 14.4095 4.26599 13.9583 4.60733 13.6141L14.1114 4.11002C14.9307 3.41786 16.1387 3.44965 16.9204 4.18394ZM13.3945 7.77462L16.2246 10.6047L18.3367 8.54551L15.4538 5.6626L13.3945 7.77462Z" fill="#637381"/>
</svg>
