<svg width="38" height="38" viewBox="0 0 38 38" fill="none" xmlns="http://www.w3.org/2000/svg">
<rect width="38" height="38" rx="19" fill="#F2F5FC"/>
<path d="M18.14 26.79C17.0867 26.79 16.2 26.51 15.48 25.95C14.7667 25.39 14.2733 24.6367 14 23.69L16.07 23.2C16.1633 23.6467 16.4 24.03 16.78 24.35C17.1667 24.6633 17.5967 24.82 18.07 24.82C18.3833 24.82 18.71 24.74 19.05 24.58C19.39 24.42 19.6433 24.16 19.81 23.8C19.9233 23.56 19.99 23.2867 20.01 22.98C20.03 22.6667 20.04 22.3033 20.04 21.89V12.1H22.16V21.89C22.16 22.3167 22.1567 22.6967 22.15 23.03C22.15 23.3633 22.1167 23.6767 22.05 23.97C21.99 24.2633 21.87 24.5667 21.69 24.88C21.31 25.54 20.81 26.0233 20.19 26.33C19.57 26.6367 18.8867 26.79 18.14 26.79Z" fill="#0231C8"/>
</svg>
